{
	"asset":{
		"version":"2.0",
		"generator":"Houdini GLTF 2.0 Exporter"
	},
	"accessors":[
		{
			"bufferView":0,
			"componentType":5125,
			"count":125544,
			"type":"SCALAR",
			"min":[0
			],
			"max":[22984
			]
		},
		{
			"bufferView":1,
			"componentType":5126,
			"count":22985,
			"type":"VEC3",
			"min":[-0.0898324773,0.0842432305,-0.116789408
			],
			"max":[0.0898324773,0.317396194,0.1328374
			]
		},
		{
			"bufferView":2,
			"componentType":5126,
			"count":22985,
			"type":"VEC3",
			"min":[-0.00886731502,16.3819885,-6.29152441
			],
			"max":[0.0044209552,23.330164,-0.663994789
			]
		},
		{
			"bufferView":3,
			"componentType":5126,
			"count":22985,
			"type":"VEC3",
			"min":[-0.612609088,-0.612609148,-0.612609267
			],
			"max":[105.230537,100.000031,99.9999924
			]
		},
		{
			"bufferView":4,
			"componentType":5126,
			"count":22985,
			"type":"VEC3",
			"min":[-1.57079673,-0.788493216,0
			],
			"max":[-3.52767096e-08,0,2.83881832e-07
			]
		},
		{
			"bufferView":5,
			"componentType":5126,
			"count":22985,
			"type":"VEC4",
			"min":[-0.999997854,-0.999966741,-0.986603081,1
			],
			"max":[1,0.999920905,0.999633551,1
			]
		},
		{
			"bufferView":6,
			"componentType":5126,
			"count":22985,
			"type":"VEC2",
			"min":[0,0.00107234716
			],
			"max":[0.999663174,1
			]
		},
		{
			"bufferView":7,
			"componentType":5126,
			"count":22985,
			"type":"VEC3",
			"min":[-1,-1,-0.99999398
			],
			"max":[1,1,1
			]
		},
		{
			"bufferView":8,
			"componentType":5126,
			"count":22985,
			"type":"SCALAR",
			"min":[0.569848061
			],
			"max":[0.569848061
			]
		},
		{
			"bufferView":9,
			"componentType":5125,
			"count":22985,
			"type":"SCALAR",
			"min":[0
			],
			"max":[0
			]
		},
		{
			"bufferView":10,
			"componentType":5123,
			"count":2880,
			"type":"SCALAR",
			"min":[0
			],
			"max":[654
			]
		},
		{
			"bufferView":11,
			"componentType":5126,
			"count":655,
			"type":"VEC3",
			"min":[-0.0449547991,0.262237757,0.0344685726
			],
			"max":[-0.0423652343,0.264827341,0.0370581374
			]
		},
		{
			"bufferView":12,
			"componentType":5126,
			"count":655,
			"type":"VEC3",
			"min":[-4.36600208,26.3532562,3.57633543
			],
			"max":[-4.36600208,26.3532562,3.57633543
			]
		},
		{
			"bufferView":13,
			"componentType":5126,
			"count":655,
			"type":"VEC3",
			"min":[0.12947838,0.12947844,0.129478395
			],
			"max":[0.12947838,0.12947844,0.129478395
			]
		},
		{
			"bufferView":14,
			"componentType":5126,
			"count":655,
			"type":"VEC3",
			"min":[-1.57079661,0,0
			],
			"max":[-1.57079661,0,0
			]
		},
		{
			"bufferView":15,
			"componentType":5126,
			"count":655,
			"type":"VEC4",
			"min":[-0.99879992,-0.0648595467,-0.0304601081,1
			],
			"max":[0.99999398,0.814140975,0.668847501,1
			]
		},
		{
			"bufferView":16,
			"componentType":5126,
			"count":655,
			"type":"VEC2",
			"min":[0,0.0847586393
			],
			"max":[0.999517143,1
			]
		},
		{
			"bufferView":17,
			"componentType":5126,
			"count":655,
			"type":"VEC3",
			"min":[-1,-1,-1
			],
			"max":[1,1,1
			]
		},
		{
			"bufferView":18,
			"componentType":5126,
			"count":655,
			"type":"SCALAR",
			"min":[0.569848061
			],
			"max":[0.569848061
			]
		},
		{
			"bufferView":19,
			"componentType":5125,
			"count":655,
			"type":"SCALAR",
			"min":[0
			],
			"max":[0
			]
		},
		{
			"bufferView":20,
			"componentType":5123,
			"count":2880,
			"type":"SCALAR",
			"min":[0
			],
			"max":[650
			]
		},
		{
			"bufferView":21,
			"componentType":5126,
			"count":651,
			"type":"VEC3",
			"min":[-0.0395785421,0.262237757,0.0344685726
			],
			"max":[-0.0369889773,0.264827341,0.0370581374
			]
		},
		{
			"bufferView":22,
			"componentType":5126,
			"count":651,
			"type":"VEC3",
			"min":[-3.82837605,26.3532562,3.57633543
			],
			"max":[-3.82837605,26.3532562,3.57633543
			]
		},
		{
			"bufferView":23,
			"componentType":5126,
			"count":651,
			"type":"VEC3",
			"min":[0.12947838,0.12947844,0.129478395
			],
			"max":[0.12947838,0.12947844,0.129478395
			]
		},
		{
			"bufferView":24,
			"componentType":5126,
			"count":651,
			"type":"VEC3",
			"min":[-1.57079661,0,0
			],
			"max":[-1.57079661,0,0
			]
		},
		{
			"bufferView":25,
			"componentType":5126,
			"count":651,
			"type":"VEC4",
			"min":[0.995541871,-0.0815454125,-0.0624198951,1
			],
			"max":[0.999999106,0.0902337432,0.0101232175,1
			]
		},
		{
			"bufferView":26,
			"componentType":5126,
			"count":651,
			"type":"VEC2",
			"min":[0,0.0526424646
			],
			"max":[0.9996382,1
			]
		},
		{
			"bufferView":27,
			"componentType":5126,
			"count":651,
			"type":"VEC3",
			"min":[-1,-1,-1
			],
			"max":[1,1,1
			]
		},
		{
			"bufferView":28,
			"componentType":5126,
			"count":651,
			"type":"SCALAR",
			"min":[0.569848061
			],
			"max":[0.569848061
			]
		},
		{
			"bufferView":29,
			"componentType":5125,
			"count":651,
			"type":"SCALAR",
			"min":[0
			],
			"max":[0
			]
		},
		{
			"bufferView":30,
			"componentType":5125,
			"count":64095,
			"type":"SCALAR",
			"min":[0
			],
			"max":[13170
			]
		},
		{
			"bufferView":31,
			"componentType":5126,
			"count":13171,
			"type":"VEC3",
			"min":[-0.106355168,0.0218220949,-0.205074996
			],
			"max":[0.106355168,0.329953253,0.12723656
			]
		},
		{
			"bufferView":32,
			"componentType":5126,
			"count":13171,
			"type":"VEC3",
			"min":[-6.44882727,7.59068462e-06,-6.47629929
			],
			"max":[0.0044209552,27.6103954,3.29813242
			]
		},
		{
			"bufferView":33,
			"componentType":5126,
			"count":13171,
			"type":"VEC3",
			"min":[-0.612609088,-0.612609148,-0.612609267
			],
			"max":[99.9999847,100.000031,99.9999924
			]
		},
		{
			"bufferView":34,
			"componentType":5126,
			"count":13171,
			"type":"VEC3",
			"min":[-1.57079661,0,0
			],
			"max":[-3.52767096e-08,0,0
			]
		},
		{
			"bufferView":35,
			"componentType":5126,
			"count":13171,
			"type":"VEC4",
			"min":[-1,-0.999985576,-0.999980867,1
			],
			"max":[1,0.99999994,0.999999642,1
			]
		},
		{
			"bufferView":36,
			"componentType":5126,
			"count":13171,
			"type":"VEC2",
			"min":[0,0.000909924507
			],
			"max":[0.999985993,1
			]
		},
		{
			"bufferView":37,
			"componentType":5126,
			"count":13171,
			"type":"VEC3",
			"min":[-1,-1,-1
			],
			"max":[1,1,1
			]
		},
		{
			"bufferView":38,
			"componentType":5126,
			"count":13171,
			"type":"SCALAR",
			"min":[0.569848061
			],
			"max":[0.569848061
			]
		},
		{
			"bufferView":39,
			"componentType":5125,
			"count":13171,
			"type":"SCALAR",
			"min":[0
			],
			"max":[0
			]
		}
	],
	"buffers":[
		{
			"uri":"coffemachine_data.bin",
			"byteLength":4216580,
			"name":"main_buffer"
		}
	],
	"bufferViews":[
		{
			"buffer":0,
			"byteLength":502176,
			"target":34963
		},
		{
			"buffer":0,
			"byteOffset":502176,
			"byteLength":275820,
			"target":34962
		},
		{
			"buffer":0,
			"byteOffset":777996,
			"byteLength":275820,
			"target":34962
		},
		{
			"buffer":0,
			"byteOffset":1053816,
			"byteLength":275820,
			"target":34962
		},
		{
			"buffer":0,
			"byteOffset":1329636,
			"byteLength":275820,
			"target":34962
		},
		{
			"buffer":0,
			"byteOffset":1605456,
			"byteLength":367760,
			"target":34962
		},
		{
			"buffer":0,
			"byteOffset":1973216,
			"byteLength":183880,
			"target":34962
		},
		{
			"buffer":0,
			"byteOffset":2157096,
			"byteLength":275820,
			"target":34962
		},
		{
			"buffer":0,
			"byteOffset":2432916,
			"byteLength":91940,
			"target":34962
		},
		{
			"buffer":0,
			"byteOffset":2524856,
			"byteLength":91940,
			"target":34962
		},
		{
			"buffer":0,
			"byteOffset":2616796,
			"byteLength":5760,
			"target":34963
		},
		{
			"buffer":0,
			"byteOffset":2622556,
			"byteLength":7860,
			"target":34962
		},
		{
			"buffer":0,
			"byteOffset":2630416,
			"byteLength":7860,
			"target":34962
		},
		{
			"buffer":0,
			"byteOffset":2638276,
			"byteLength":7860,
			"target":34962
		},
		{
			"buffer":0,
			"byteOffset":2646136,
			"byteLength":7860,
			"target":34962
		},
		{
			"buffer":0,
			"byteOffset":2653996,
			"byteLength":10480,
			"target":34962
		},
		{
			"buffer":0,
			"byteOffset":2664476,
			"byteLength":5240,
			"target":34962
		},
		{
			"buffer":0,
			"byteOffset":2669716,
			"byteLength":7860,
			"target":34962
		},
		{
			"buffer":0,
			"byteOffset":2677576,
			"byteLength":2620,
			"target":34962
		},
		{
			"buffer":0,
			"byteOffset":2680196,
			"byteLength":2620,
			"target":34962
		},
		{
			"buffer":0,
			"byteOffset":2682816,
			"byteLength":5760,
			"target":34963
		},
		{
			"buffer":0,
			"byteOffset":2688576,
			"byteLength":7812,
			"target":34962
		},
		{
			"buffer":0,
			"byteOffset":2696388,
			"byteLength":7812,
			"target":34962
		},
		{
			"buffer":0,
			"byteOffset":2704200,
			"byteLength":7812,
			"target":34962
		},
		{
			"buffer":0,
			"byteOffset":2712012,
			"byteLength":7812,
			"target":34962
		},
		{
			"buffer":0,
			"byteOffset":2719824,
			"byteLength":10416,
			"target":34962
		},
		{
			"buffer":0,
			"byteOffset":2730240,
			"byteLength":5208,
			"target":34962
		},
		{
			"buffer":0,
			"byteOffset":2735448,
			"byteLength":7812,
			"target":34962
		},
		{
			"buffer":0,
			"byteOffset":2743260,
			"byteLength":2604,
			"target":34962
		},
		{
			"buffer":0,
			"byteOffset":2745864,
			"byteLength":2604,
			"target":34962
		},
		{
			"buffer":0,
			"byteOffset":2748468,
			"byteLength":256380,
			"target":34963
		},
		{
			"buffer":0,
			"byteOffset":3004848,
			"byteLength":158052,
			"target":34962
		},
		{
			"buffer":0,
			"byteOffset":3162900,
			"byteLength":158052,
			"target":34962
		},
		{
			"buffer":0,
			"byteOffset":3320952,
			"byteLength":158052,
			"target":34962
		},
		{
			"buffer":0,
			"byteOffset":3479004,
			"byteLength":158052,
			"target":34962
		},
		{
			"buffer":0,
			"byteOffset":3637056,
			"byteLength":210736,
			"target":34962
		},
		{
			"buffer":0,
			"byteOffset":3847792,
			"byteLength":105368,
			"target":34962
		},
		{
			"buffer":0,
			"byteOffset":3953160,
			"byteLength":158052,
			"target":34962
		},
		{
			"buffer":0,
			"byteOffset":4111212,
			"byteLength":52684,
			"target":34962
		},
		{
			"buffer":0,
			"byteOffset":4163896,
			"byteLength":52684,
			"target":34962
		}
	],
	"nodes":[
		{
			"name":"coffemachine",
			"mesh":0
		}
	],
	"meshes":[
		{
			"primitives":[
				{
					"attributes":{
						"_coverage":8,
						"_numnonpacked":9,
						"NORMAL":7,
						"TEXCOORD_0":6,
						"_fbx_rotation":4,
						"TANGENT":5,
						"_fbx_scale":3,
						"_fbx_translation":2,
						"POSITION":1
					},
					"indices":0,
					"material":0
				},
				{
					"attributes":{
						"_coverage":18,
						"_numnonpacked":19,
						"NORMAL":17,
						"TEXCOORD_0":16,
						"_fbx_rotation":14,
						"TANGENT":15,
						"_fbx_scale":13,
						"_fbx_translation":12,
						"POSITION":11
					},
					"indices":10,
					"material":1
				},
				{
					"attributes":{
						"_coverage":28,
						"_numnonpacked":29,
						"NORMAL":27,
						"TEXCOORD_0":26,
						"_fbx_rotation":24,
						"TANGENT":25,
						"_fbx_scale":23,
						"_fbx_translation":22,
						"POSITION":21
					},
					"indices":20,
					"material":2
				},
				{
					"attributes":{
						"_coverage":38,
						"_numnonpacked":39,
						"NORMAL":37,
						"TEXCOORD_0":36,
						"_fbx_rotation":34,
						"TANGENT":35,
						"_fbx_scale":33,
						"_fbx_translation":32,
						"POSITION":31
					},
					"indices":30,
					"material":3
				}
			],
			"name":"transform2"
		}
	],
	"materials":[
		{
			"name":"iron",
			"pbrMetallicRoughness":{
				"baseColorFactor":[0.527419984,0.511843979,0.500869989,1
				],
				"roughnessFactor":0.300000012
			}
		},
		{
			"name":"emissive_red",
			"pbrMetallicRoughness":{
				"baseColorFactor":[0.200000003,0.200000003,0.200000003,1
				],
				"metallicFactor":0,
				"roughnessFactor":0.300000012
			},
			"emissiveFactor":[50,27.0588245,30.7843151
			]
		},
		{
			"name":"emissive_green",
			"pbrMetallicRoughness":{
				"baseColorFactor":[0.200000003,0.200000003,0.200000003,1
				],
				"metallicFactor":0,
				"roughnessFactor":0.300000012
			},
			"emissiveFactor":[0.196078449,50,13.333334
			]
		},
		{
			"name":"principledshader",
			"pbrMetallicRoughness":{
				"baseColorFactor":[0,0,0,1
				],
				"metallicFactor":0,
				"roughnessFactor":0.405000001
			}
		}
	],
	"scenes":[
		{
			"nodes":[0
			]
		}
	],
	"scene":0
}
