{
	"asset":{
		"generator":"Khronos glTF Blender I/O v4.0.44",
		"version":"2.0"
	},
	"extensionsUsed":[
		"KHR_materials_transmission",
		"KHR_materials_specular",
		"KHR_materials_ior"
	],
	"scene":0,
	"scenes":[
		{
			"name":"Scene",
			"nodes":[
				0
			]
		}
	],
	"nodes":[
		{
			"mesh":0,
			"name":"cup",
			"rotation":[
				0,
				-1,
				0,
				3.300117866017428e-15
			],
			"scale":[
				0.017000000923871994,
				0.017000000923871994,
				0.017000000923871994
			],
			"translation":[
				-0.03624602034687996,
				0.11316593736410141,
				-0.027918189764022827
			]
		}
	],
	"materials":[
		{
			"alphaMode":"BLEND",
			"doubleSided":true,
			"extensions":{
				"KHR_materials_transmission":{
					"transmissionFactor":0.10000000149011612
				},
				"KHR_materials_specular":{
					"specularColorFactor":[
						2.0,
						2.0,
						2.0
					]
				},
				"KHR_materials_ior":{
					"ior":1.399999976158142
				}
			},
			"name":"cups",
			"pbrMetallicRoughness":{
				"baseColorFactor":[
					0.49701642990112305,
					0.502864420413971,
					0.5028501152992249,
					0.49772724509239197
				],
				"metallicFactor":0.25,
				"roughnessFactor":0.10000000149011612
			}
		}
	],
	"meshes":[
		{
			"name":"Mesh.001",
			"primitives":[
				{
					"attributes":{
						"POSITION":0,
						"NORMAL":1,
						"TEXCOORD_0":2
					},
					"indices":3,
					"material":0
				}
			]
		}
	],
	"accessors":[
		{
			"bufferView":0,
			"componentType":5126,
			"count":4238,
			"max":[
				2.757875680923462,
				2.056178331375122,
				1.8792352676391602
			],
			"min":[
				-7.276848316192627,
				-1.7066543102264404,
				-1.8792387247085571
			],
			"type":"VEC3"
		},
		{
			"bufferView":1,
			"componentType":5126,
			"count":4238,
			"type":"VEC3"
		},
		{
			"bufferView":2,
			"componentType":5126,
			"count":4238,
			"type":"VEC2"
		},
		{
			"bufferView":3,
			"componentType":5123,
			"count":20736,
			"type":"SCALAR"
		}
	],
	"bufferViews":[
		{
			"buffer":0,
			"byteLength":50856,
			"byteOffset":0,
			"target":34962
		},
		{
			"buffer":0,
			"byteLength":50856,
			"byteOffset":50856,
			"target":34962
		},
		{
			"buffer":0,
			"byteLength":33904,
			"byteOffset":101712,
			"target":34962
		},
		{
			"buffer":0,
			"byteLength":41472,
			"byteOffset":135616,
			"target":34963
		}
	],
	"buffers":[
		{
			"byteLength":177088,
			"uri":"cup.bin"
		}
	]
}
